<mxfile host="Electron" agent="Mozilla/5.0 (Windows NT 10.0; Win64; x64) AppleWebKit/537.36 (KHTML, like Gecko) draw.io/24.7.17 Chrome/128.0.6613.36 Electron/32.0.1 Safari/537.36" version="24.7.17">
  <diagram name="Page-1" id="ZTtj1WsbgO1QFqQ-39HZ">
    <mxGraphModel dx="2552" dy="1308" grid="1" gridSize="10" guides="1" tooltips="1" connect="1" arrows="1" fold="1" page="1" pageScale="1" pageWidth="1600" pageHeight="900" math="0" shadow="0">
      <root>
        <mxCell id="0" />
        <mxCell id="1" parent="0" />
        <mxCell id="PK0qj4NqIiUIWGqcQdZW-1" value="" style="rounded=1;whiteSpace=wrap;html=1;" vertex="1" parent="1">
          <mxGeometry x="40" y="40" width="1520" height="120" as="geometry" />
        </mxCell>
        <mxCell id="PK0qj4NqIiUIWGqcQdZW-2" value="" style="whiteSpace=wrap;html=1;aspect=fixed;" vertex="1" parent="1">
          <mxGeometry x="60" y="60" width="80" height="80" as="geometry" />
        </mxCell>
        <mxCell id="PK0qj4NqIiUIWGqcQdZW-3" value="" style="endArrow=none;html=1;rounded=0;entryX=1;entryY=0;entryDx=0;entryDy=0;exitX=0;exitY=1;exitDx=0;exitDy=0;" edge="1" source="PK0qj4NqIiUIWGqcQdZW-2" target="PK0qj4NqIiUIWGqcQdZW-2" parent="1">
          <mxGeometry width="50" height="50" relative="1" as="geometry">
            <mxPoint x="80" y="140" as="sourcePoint" />
            <mxPoint x="130" y="90" as="targetPoint" />
          </mxGeometry>
        </mxCell>
        <mxCell id="PK0qj4NqIiUIWGqcQdZW-4" value="" style="endArrow=none;html=1;rounded=0;entryX=1;entryY=1;entryDx=0;entryDy=0;exitX=0;exitY=0;exitDx=0;exitDy=0;" edge="1" source="PK0qj4NqIiUIWGqcQdZW-2" target="PK0qj4NqIiUIWGqcQdZW-2" parent="1">
          <mxGeometry width="50" height="50" relative="1" as="geometry">
            <mxPoint x="200" y="160" as="sourcePoint" />
            <mxPoint x="250" y="110" as="targetPoint" />
          </mxGeometry>
        </mxCell>
        <mxCell id="PK0qj4NqIiUIWGqcQdZW-9" value="&lt;font style=&quot;font-size: 48px;&quot;&gt;Text&lt;/font&gt;" style="text;html=1;align=center;verticalAlign=middle;whiteSpace=wrap;rounded=0;" vertex="1" parent="1">
          <mxGeometry x="180" y="85" width="60" height="30" as="geometry" />
        </mxCell>
        <mxCell id="PK0qj4NqIiUIWGqcQdZW-10" value="" style="rounded=1;whiteSpace=wrap;html=1;" vertex="1" parent="1">
          <mxGeometry x="40" y="200" width="1520" height="640" as="geometry" />
        </mxCell>
        <mxCell id="PK0qj4NqIiUIWGqcQdZW-11" value="" style="endArrow=none;html=1;rounded=0;entryX=0.25;entryY=0;entryDx=0;entryDy=0;exitX=0.75;exitY=1;exitDx=0;exitDy=0;" edge="1" parent="1" source="PK0qj4NqIiUIWGqcQdZW-10" target="PK0qj4NqIiUIWGqcQdZW-10">
          <mxGeometry width="50" height="50" relative="1" as="geometry">
            <mxPoint x="550" y="470" as="sourcePoint" />
            <mxPoint x="600" y="420" as="targetPoint" />
          </mxGeometry>
        </mxCell>
        <mxCell id="PK0qj4NqIiUIWGqcQdZW-12" value="" style="endArrow=none;html=1;rounded=0;entryX=0.75;entryY=0;entryDx=0;entryDy=0;exitX=0.25;exitY=1;exitDx=0;exitDy=0;" edge="1" parent="1" source="PK0qj4NqIiUIWGqcQdZW-10" target="PK0qj4NqIiUIWGqcQdZW-10">
          <mxGeometry width="50" height="50" relative="1" as="geometry">
            <mxPoint x="390" y="580" as="sourcePoint" />
            <mxPoint x="440" y="530" as="targetPoint" />
          </mxGeometry>
        </mxCell>
        <mxCell id="PK0qj4NqIiUIWGqcQdZW-13" value="&lt;font style=&quot;font-size: 48px;&quot;&gt;vidio&lt;/font&gt;" style="text;html=1;align=center;verticalAlign=middle;whiteSpace=wrap;rounded=0;" vertex="1" parent="1">
          <mxGeometry x="770" y="320" width="60" height="30" as="geometry" />
        </mxCell>
        <mxCell id="PK0qj4NqIiUIWGqcQdZW-14" value="" style="rounded=1;whiteSpace=wrap;html=1;" vertex="1" parent="1">
          <mxGeometry x="40" y="880" width="1520" height="480" as="geometry" />
        </mxCell>
        <mxCell id="PK0qj4NqIiUIWGqcQdZW-15" value="" style="shape=table;startSize=0;container=1;collapsible=0;childLayout=tableLayout;" vertex="1" parent="1">
          <mxGeometry x="80" y="920" width="240" height="390" as="geometry" />
        </mxCell>
        <mxCell id="PK0qj4NqIiUIWGqcQdZW-16" value="" style="shape=tableRow;horizontal=0;startSize=0;swimlaneHead=0;swimlaneBody=0;strokeColor=inherit;top=0;left=0;bottom=0;right=0;collapsible=0;dropTarget=0;fillColor=none;points=[[0,0.5],[1,0.5]];portConstraint=eastwest;" vertex="1" parent="PK0qj4NqIiUIWGqcQdZW-15">
          <mxGeometry width="240" height="78" as="geometry" />
        </mxCell>
        <mxCell id="PK0qj4NqIiUIWGqcQdZW-17" value="" style="shape=partialRectangle;html=1;whiteSpace=wrap;connectable=0;strokeColor=inherit;overflow=hidden;fillColor=none;top=0;left=0;bottom=0;right=0;pointerEvents=1;" vertex="1" parent="PK0qj4NqIiUIWGqcQdZW-16">
          <mxGeometry width="120" height="78" as="geometry">
            <mxRectangle width="120" height="78" as="alternateBounds" />
          </mxGeometry>
        </mxCell>
        <mxCell id="PK0qj4NqIiUIWGqcQdZW-18" value="" style="shape=partialRectangle;html=1;whiteSpace=wrap;connectable=0;strokeColor=inherit;overflow=hidden;fillColor=none;top=0;left=0;bottom=0;right=0;pointerEvents=1;" vertex="1" parent="PK0qj4NqIiUIWGqcQdZW-16">
          <mxGeometry x="120" width="120" height="78" as="geometry">
            <mxRectangle width="120" height="78" as="alternateBounds" />
          </mxGeometry>
        </mxCell>
        <mxCell id="PK0qj4NqIiUIWGqcQdZW-19" value="" style="shape=tableRow;horizontal=0;startSize=0;swimlaneHead=0;swimlaneBody=0;strokeColor=inherit;top=0;left=0;bottom=0;right=0;collapsible=0;dropTarget=0;fillColor=none;points=[[0,0.5],[1,0.5]];portConstraint=eastwest;" vertex="1" parent="PK0qj4NqIiUIWGqcQdZW-15">
          <mxGeometry y="78" width="240" height="78" as="geometry" />
        </mxCell>
        <mxCell id="PK0qj4NqIiUIWGqcQdZW-20" value="" style="shape=partialRectangle;html=1;whiteSpace=wrap;connectable=0;strokeColor=inherit;overflow=hidden;fillColor=none;top=0;left=0;bottom=0;right=0;pointerEvents=1;" vertex="1" parent="PK0qj4NqIiUIWGqcQdZW-19">
          <mxGeometry width="120" height="78" as="geometry">
            <mxRectangle width="120" height="78" as="alternateBounds" />
          </mxGeometry>
        </mxCell>
        <mxCell id="PK0qj4NqIiUIWGqcQdZW-21" value="" style="shape=partialRectangle;html=1;whiteSpace=wrap;connectable=0;strokeColor=inherit;overflow=hidden;fillColor=none;top=0;left=0;bottom=0;right=0;pointerEvents=1;" vertex="1" parent="PK0qj4NqIiUIWGqcQdZW-19">
          <mxGeometry x="120" width="120" height="78" as="geometry">
            <mxRectangle width="120" height="78" as="alternateBounds" />
          </mxGeometry>
        </mxCell>
        <mxCell id="PK0qj4NqIiUIWGqcQdZW-22" value="" style="shape=tableRow;horizontal=0;startSize=0;swimlaneHead=0;swimlaneBody=0;strokeColor=inherit;top=0;left=0;bottom=0;right=0;collapsible=0;dropTarget=0;fillColor=none;points=[[0,0.5],[1,0.5]];portConstraint=eastwest;" vertex="1" parent="PK0qj4NqIiUIWGqcQdZW-15">
          <mxGeometry y="156" width="240" height="78" as="geometry" />
        </mxCell>
        <mxCell id="PK0qj4NqIiUIWGqcQdZW-23" value="" style="shape=partialRectangle;html=1;whiteSpace=wrap;connectable=0;strokeColor=inherit;overflow=hidden;fillColor=none;top=0;left=0;bottom=0;right=0;pointerEvents=1;" vertex="1" parent="PK0qj4NqIiUIWGqcQdZW-22">
          <mxGeometry width="120" height="78" as="geometry">
            <mxRectangle width="120" height="78" as="alternateBounds" />
          </mxGeometry>
        </mxCell>
        <mxCell id="PK0qj4NqIiUIWGqcQdZW-24" value="" style="shape=partialRectangle;html=1;whiteSpace=wrap;connectable=0;strokeColor=inherit;overflow=hidden;fillColor=none;top=0;left=0;bottom=0;right=0;pointerEvents=1;" vertex="1" parent="PK0qj4NqIiUIWGqcQdZW-22">
          <mxGeometry x="120" width="120" height="78" as="geometry">
            <mxRectangle width="120" height="78" as="alternateBounds" />
          </mxGeometry>
        </mxCell>
        <mxCell id="PK0qj4NqIiUIWGqcQdZW-25" value="" style="shape=tableRow;horizontal=0;startSize=0;swimlaneHead=0;swimlaneBody=0;strokeColor=inherit;top=0;left=0;bottom=0;right=0;collapsible=0;dropTarget=0;fillColor=none;points=[[0,0.5],[1,0.5]];portConstraint=eastwest;" vertex="1" parent="PK0qj4NqIiUIWGqcQdZW-15">
          <mxGeometry y="234" width="240" height="78" as="geometry" />
        </mxCell>
        <mxCell id="PK0qj4NqIiUIWGqcQdZW-26" value="" style="shape=partialRectangle;html=1;whiteSpace=wrap;connectable=0;strokeColor=inherit;overflow=hidden;fillColor=none;top=0;left=0;bottom=0;right=0;pointerEvents=1;" vertex="1" parent="PK0qj4NqIiUIWGqcQdZW-25">
          <mxGeometry width="120" height="78" as="geometry">
            <mxRectangle width="120" height="78" as="alternateBounds" />
          </mxGeometry>
        </mxCell>
        <mxCell id="PK0qj4NqIiUIWGqcQdZW-27" value="" style="shape=partialRectangle;html=1;whiteSpace=wrap;connectable=0;strokeColor=inherit;overflow=hidden;fillColor=none;top=0;left=0;bottom=0;right=0;pointerEvents=1;" vertex="1" parent="PK0qj4NqIiUIWGqcQdZW-25">
          <mxGeometry x="120" width="120" height="78" as="geometry">
            <mxRectangle width="120" height="78" as="alternateBounds" />
          </mxGeometry>
        </mxCell>
        <mxCell id="PK0qj4NqIiUIWGqcQdZW-28" value="" style="shape=tableRow;horizontal=0;startSize=0;swimlaneHead=0;swimlaneBody=0;strokeColor=inherit;top=0;left=0;bottom=0;right=0;collapsible=0;dropTarget=0;fillColor=none;points=[[0,0.5],[1,0.5]];portConstraint=eastwest;" vertex="1" parent="PK0qj4NqIiUIWGqcQdZW-15">
          <mxGeometry y="312" width="240" height="78" as="geometry" />
        </mxCell>
        <mxCell id="PK0qj4NqIiUIWGqcQdZW-29" value="" style="shape=partialRectangle;html=1;whiteSpace=wrap;connectable=0;strokeColor=inherit;overflow=hidden;fillColor=none;top=0;left=0;bottom=0;right=0;pointerEvents=1;" vertex="1" parent="PK0qj4NqIiUIWGqcQdZW-28">
          <mxGeometry width="120" height="78" as="geometry">
            <mxRectangle width="120" height="78" as="alternateBounds" />
          </mxGeometry>
        </mxCell>
        <mxCell id="PK0qj4NqIiUIWGqcQdZW-30" value="" style="shape=partialRectangle;html=1;whiteSpace=wrap;connectable=0;strokeColor=inherit;overflow=hidden;fillColor=none;top=0;left=0;bottom=0;right=0;pointerEvents=1;" vertex="1" parent="PK0qj4NqIiUIWGqcQdZW-28">
          <mxGeometry x="120" width="120" height="78" as="geometry">
            <mxRectangle width="120" height="78" as="alternateBounds" />
          </mxGeometry>
        </mxCell>
        <mxCell id="PK0qj4NqIiUIWGqcQdZW-31" value="Text" style="text;html=1;align=center;verticalAlign=middle;whiteSpace=wrap;rounded=0;" vertex="1" parent="1">
          <mxGeometry x="110" y="944" width="60" height="30" as="geometry" />
        </mxCell>
        <mxCell id="PK0qj4NqIiUIWGqcQdZW-32" value="Text" style="text;html=1;align=center;verticalAlign=middle;whiteSpace=wrap;rounded=0;" vertex="1" parent="1">
          <mxGeometry x="230" y="944" width="60" height="30" as="geometry" />
        </mxCell>
        <mxCell id="PK0qj4NqIiUIWGqcQdZW-33" value="Text" style="text;html=1;align=center;verticalAlign=middle;whiteSpace=wrap;rounded=0;" vertex="1" parent="1">
          <mxGeometry x="230" y="1020" width="60" height="30" as="geometry" />
        </mxCell>
        <mxCell id="PK0qj4NqIiUIWGqcQdZW-34" value="Text" style="text;html=1;align=center;verticalAlign=middle;whiteSpace=wrap;rounded=0;" vertex="1" parent="1">
          <mxGeometry x="110" y="1020" width="60" height="30" as="geometry" />
        </mxCell>
        <mxCell id="PK0qj4NqIiUIWGqcQdZW-35" value="Text" style="text;html=1;align=center;verticalAlign=middle;whiteSpace=wrap;rounded=0;" vertex="1" parent="1">
          <mxGeometry x="110" y="1100" width="60" height="30" as="geometry" />
        </mxCell>
        <mxCell id="PK0qj4NqIiUIWGqcQdZW-36" value="Text" style="text;html=1;align=center;verticalAlign=middle;whiteSpace=wrap;rounded=0;" vertex="1" parent="1">
          <mxGeometry x="230" y="1100" width="60" height="30" as="geometry" />
        </mxCell>
        <mxCell id="PK0qj4NqIiUIWGqcQdZW-37" value="Text" style="text;html=1;align=center;verticalAlign=middle;whiteSpace=wrap;rounded=0;" vertex="1" parent="1">
          <mxGeometry x="230" y="1180" width="60" height="30" as="geometry" />
        </mxCell>
        <mxCell id="PK0qj4NqIiUIWGqcQdZW-38" value="Text" style="text;html=1;align=center;verticalAlign=middle;whiteSpace=wrap;rounded=0;" vertex="1" parent="1">
          <mxGeometry x="110" y="1180" width="60" height="30" as="geometry" />
        </mxCell>
        <mxCell id="PK0qj4NqIiUIWGqcQdZW-39" value="Text" style="text;html=1;align=center;verticalAlign=middle;whiteSpace=wrap;rounded=0;" vertex="1" parent="1">
          <mxGeometry x="110" y="1260" width="60" height="30" as="geometry" />
        </mxCell>
        <mxCell id="PK0qj4NqIiUIWGqcQdZW-40" value="Text" style="text;html=1;align=center;verticalAlign=middle;whiteSpace=wrap;rounded=0;" vertex="1" parent="1">
          <mxGeometry x="230" y="1260" width="60" height="30" as="geometry" />
        </mxCell>
      </root>
    </mxGraphModel>
  </diagram>
</mxfile>
